<?xml version="1.0" encoding="utf-8"?>
<!-- Generator: Adobe Illustrator 22.0.0, SVG Export Plug-In . SVG Version: 6.00 Build 0)  -->
<svg version="1.1" id="Capa_1" xmlns="http://www.w3.org/2000/svg" xmlns:xlink="http://www.w3.org/1999/xlink" x="0px" y="0px"
	 viewBox="0 0 344 244.9" style="enable-background:new 0 0 344 244.9;" xml:space="preserve">
<style type="text/css">
	.st0{fill:#FFFFFF;}
</style>
<g>
	<g>
		<g>
			<path class="st0" d="M175.8,104.4c3.9,0,7.1-3.2,7.1-7.1s-3.2-7.1-7.1-7.1c-3.9,0-7.1,3.2-7.1,7.1
				C168.6,101.1,171.8,104.4,175.8,104.4z M175.8,93.4c2.1,0,3.8,1.7,3.8,3.8c0,2.1-1.7,3.8-3.8,3.8s-3.8-1.7-3.8-3.8
				C171.9,95.1,173.7,93.4,175.8,93.4z"/>
			<path class="st0" d="M175.8,126.4c3.9,0,7.1-3.2,7.1-7.1s-3.2-7.1-7.1-7.1c-3.9,0-7.1,3.2-7.1,7.1
				C168.6,123.2,171.8,126.4,175.8,126.4z M175.8,115.4c2.1,0,3.8,1.7,3.8,3.8c0,2.1-1.7,3.8-3.8,3.8s-3.8-1.7-3.8-3.8
				C171.9,117.1,173.7,115.4,175.8,115.4z"/>
			<path class="st0" d="M175.8,148.4c3.9,0,7.1-3.2,7.1-7.1c0-3.9-3.2-7.1-7.1-7.1c-3.9,0-7.1,3.2-7.1,7.1
				C168.6,145.2,171.8,148.4,175.8,148.4z M175.8,137.5c2.1,0,3.8,1.7,3.8,3.8s-1.7,3.8-3.8,3.8s-3.8-1.7-3.8-3.8
				C171.9,139.2,173.7,137.5,175.8,137.5z"/>
			<path class="st0" d="M192.4,98.9h40.8c0.9,0,1.7-0.7,1.7-1.7c0-0.9-0.7-1.7-1.7-1.7h-40.8c-0.9,0-1.7,0.7-1.7,1.7
				C190.8,98.1,191.5,98.9,192.4,98.9z"/>
			<path class="st0" d="M192.4,120.9h40.8c0.9,0,1.7-0.7,1.7-1.7c0-0.9-0.7-1.7-1.7-1.7h-40.8c-0.9,0-1.7,0.7-1.7,1.7
				C190.8,120.2,191.5,120.9,192.4,120.9z"/>
			<path class="st0" d="M192.4,143h40.8c0.9,0,1.7-0.7,1.7-1.7c0-0.9-0.7-1.7-1.7-1.7h-40.8c-0.9,0-1.7,0.7-1.7,1.7
				C190.8,142.2,191.5,143,192.4,143z"/>
		</g>
	</g>
	<path class="st0" d="M183.2,158.6c-13.5,0-25.5-6.6-32.9-16.7c-0.3-0.6-0.7-1.1-1.1-1.7l-1.4-2.1l0,0c-3.4-6-5.4-12.9-5.4-20.3
		c0-22.5,18.3-40.8,40.8-40.8c14.3,0,26.9,7.4,34.2,18.5h15c-8.5-18.7-27.4-31.7-49.2-31.7c-29.8,0-54,24.2-54,54
		c0,11,3.3,21.2,8.9,29.7l-0.2,0.2l0.1,0.1l-23.5,23.3l-5.3,5.5l11.5,9.9l27.5-27.5c1,0.9,1.9,1.4,2.7,1.8
		c9,6.8,20.3,10.9,32.4,10.9c20.7,0,38.7-11.7,47.8-28.9h-15.7C207.8,152.5,196.2,158.6,183.2,158.6z"/>
</g>
</svg>
