<?xml version="1.0" encoding="UTF-8" standalone="no"?>
<!-- Created with Inkscape (http://www.inkscape.org/) -->

<svg
   xmlns:dc="http://purl.org/dc/elements/1.1/"
   xmlns:cc="http://creativecommons.org/ns#"
   xmlns:rdf="http://www.w3.org/1999/02/22-rdf-syntax-ns#"
   xmlns:svg="http://www.w3.org/2000/svg"
   xmlns="http://www.w3.org/2000/svg"
   xmlns:sodipodi="http://sodipodi.sourceforge.net/DTD/sodipodi-0.dtd"
   xmlns:inkscape="http://www.inkscape.org/namespaces/inkscape"
   version="1.1"
   id="svg2"
   xml:space="preserve"
   width="56.983002"
   height="56.686001"
   viewBox="0 0 56.983002 56.686001"
   sodipodi:docname="logo.svg"
   inkscape:version="0.92.1 r15371"><metadata
     id="metadata8"><rdf:RDF><cc:Work
         rdf:about=""><dc:format>image/svg+xml</dc:format><dc:type
           rdf:resource="http://purl.org/dc/dcmitype/StillImage" /><dc:title /></cc:Work></rdf:RDF></metadata><defs
     id="defs6"><clipPath
       clipPathUnits="userSpaceOnUse"
       id="clipPath22"><path
         d="M 0,450 H 1200 V 0 H 0 Z"
         id="path20"
         inkscape:connector-curvature="0" /></clipPath><clipPath
       clipPathUnits="userSpaceOnUse"
       id="clipPath446"><path
         d="m 863.878,380.046 -6.226,-5.218 0.593,-5.126 c 0,0 6.425,-4.16 6.821,-4.259 v 0 c 0.395,-0.098 9.093,5.338 9.093,5.338 v 0 l 2.373,8.403 -5.831,6.459 z"
         id="path444"
         inkscape:connector-curvature="0" /></clipPath><clipPath
       clipPathUnits="userSpaceOnUse"
       id="clipPath458"><path
         d="M 0,450 H 1200 V 0 H 0 Z"
         id="path456"
         inkscape:connector-curvature="0" /></clipPath></defs><sodipodi:namedview
     pagecolor="#ffffff"
     bordercolor="#666666"
     borderopacity="1"
     objecttolerance="10"
     gridtolerance="10"
     guidetolerance="10"
     inkscape:pageopacity="0"
     inkscape:pageshadow="2"
     inkscape:window-width="1600"
     inkscape:window-height="852"
     id="namedview4"
     showgrid="false"
     inkscape:zoom="6.9296464"
     inkscape:cx="40.653812"
     inkscape:cy="38.663768"
     inkscape:window-x="1050"
     inkscape:window-y="804"
     inkscape:window-maximized="1"
     inkscape:current-layer="g10" /><g
     id="g10"
     inkscape:groupmode="layer"
     inkscape:label="VENTANA EMERGENTE  CUADRO DE DIÃLOGO (1)"
     transform="matrix(1.3333333,0,0,-1.3333333,0,56.686)"><g
       id="g4947"
       transform="matrix(0.99999885,0,0,1,-860.66211,-369.7022)"
       style="fill:#ffffff"><g
         style="fill:#ffffff"
         id="g440"><g
           style="fill:#ffffff"
           clip-path="url(#clipPath446)"
           id="g442"><g
             style="fill:#ffffff"
             transform="translate(862.4961,375.0562)"
             id="g448"><path
               inkscape:connector-curvature="0"
               id="path450"
               style="fill:#ffffff;fill-opacity:1;fill-rule:nonzero;stroke:none"
               d="m 0,0 8.141,8.073 -0.027,0.036 3.444,3.339 0.485,-0.728 c 2.627,-3.946 7.013,-6.301 11.732,-6.301 7.767,0 14.085,6.319 14.085,14.085 0,7.767 -6.318,14.086 -14.085,14.086 -3.085,0 -6.015,-0.984 -8.476,-2.844 -2.381,-1.8 -4.162,-4.354 -5.016,-7.194 L 10.128,22.034 H 5.295 l 0.219,0.9 c 0.975,4.022 3.306,7.668 6.565,10.266 3.358,2.679 7.402,4.095 11.696,4.095 10.361,0 18.79,-8.43 18.79,-18.791 0,-10.361 -8.429,-18.79 -18.79,-18.79 -4.453,0 -8.731,1.574 -12.124,4.447 L 2.136,-5.354 -1.833,-1.91 Z" /></g></g></g><g
         style="fill:#ffffff"
         id="g452"><g
           style="fill:#ffffff"
           clip-path="url(#clipPath458)"
           id="g454"><g
             style="fill:#ffffff"
             transform="translate(897.4209,384.8174)"
             id="g460"><path
               inkscape:connector-curvature="0"
               id="path462"
               style="fill:#ffffff;fill-opacity:1;fill-rule:nonzero;stroke:none"
               d="m 0,0 c -2.589,-3.298 -6.607,-5.423 -11.115,-5.423 -7.79,0 -14.128,6.338 -14.128,14.128 0,7.79 6.338,14.127 14.128,14.127 4.945,0 9.303,-2.556 11.827,-6.415 h 5.2 c -2.942,6.471 -9.468,10.982 -17.027,10.982 -10.308,0 -18.695,-8.386 -18.695,-18.694 0,-10.309 8.387,-18.695 18.695,-18.695 7.167,0 13.403,4.055 16.539,9.99 z" /></g></g></g></g></g></svg>