<?xml version="1.0" encoding="UTF-8" standalone="no"?>
<svg
   xmlns:dc="http://purl.org/dc/elements/1.1/"
   xmlns:cc="http://creativecommons.org/ns#"
   xmlns:rdf="http://www.w3.org/1999/02/22-rdf-syntax-ns#"
   xmlns:svg="http://www.w3.org/2000/svg"
   xmlns="http://www.w3.org/2000/svg"
   xmlns:xlink="http://www.w3.org/1999/xlink"
   xmlns:sodipodi="http://sodipodi.sourceforge.net/DTD/sodipodi-0.dtd"
   xmlns:inkscape="http://www.inkscape.org/namespaces/inkscape"
   width="260.26666"
   height="48"
   viewBox="0 0 244 45"
   version="1.1"
   id="svg2"
   inkscape:version="0.92.1 r15371"
   sodipodi:docname="logo_comprobamos_lupacolor.svg">
  <metadata
     id="metadata110">
    <rdf:RDF>
      <cc:Work
         rdf:about="">
        <dc:format>image/svg+xml</dc:format>
        <dc:type
           rdf:resource="http://purl.org/dc/dcmitype/StillImage" />
        <dc:title>logo_comprobamos_lupacolor</dc:title>
      </cc:Work>
    </rdf:RDF>
  </metadata>
  <sodipodi:namedview
     pagecolor="#ffffff"
     bordercolor="#666666"
     borderopacity="1"
     objecttolerance="10"
     gridtolerance="10"
     guidetolerance="10"
     inkscape:pageopacity="0"
     inkscape:pageshadow="2"
     inkscape:window-width="1600"
     inkscape:window-height="852"
     id="namedview108"
     showgrid="false"
     showguides="true"
     inkscape:zoom="3.614754"
     inkscape:cx="148.09957"
     inkscape:cy="2.402742"
     inkscape:window-x="1050"
     inkscape:window-y="804"
     inkscape:window-maximized="1"
     inkscape:current-layer="svg2" />
  <!-- Generator: Sketch 42 (36781) - http://www.bohemiancoding.com/sketch -->
  <title
     id="title4">logo_comprobamos_lupacolor</title>
  <desc
     id="desc6">Created with Sketch.</desc>
  <defs
     id="defs8">
    <polygon
       id="path-1"
       points="243.73931,44.561205 243.73931,-4.5e-05 0,-4.5e-05 0,44.561205 " />
  </defs>
  <g
     id="logo_comprobamos_lupacolor"
     style="fill:#f9f9f9;fill-rule:evenodd;stroke:none;stroke-width:1"
     transform="translate(-2.101664e-6,0.438885)">
    <path
       d="m 61.533598,23.20839 v -0.0342 c 0,-2.7486 -2.00973,-4.9959 -4.781228,-4.9959 -2.772399,0 -4.747401,2.21265 -4.747401,4.96125 v 0.03465 c 0,2.74815 2.00973,4.99545 4.78213,4.99545 2.771497,0 4.746499,-2.21265 4.746499,-4.96125 z m -10.94888,0 v -0.0342 c 0,-3.3363 2.511712,-6.2577 6.202381,-6.2577 3.690218,0 6.167201,2.88675 6.167201,6.22305 v 0.03465 c 0,3.33585 -2.51126,6.25725 -6.20193,6.25725 -3.690218,0 -6.167652,-2.88675 -6.167652,-6.22305 z"
       id="Fill-1"
       style="fill:#f9f9f9"
       inkscape:connector-curvature="0" />
    <polygon
       id="Fill-3"
       points="72.710918,25.90524 72.641912,25.90524 68.223753,19.44009 68.223753,29.22444 66.889646,29.22444 66.889646,17.12394 68.27562,17.12394 72.693779,23.72724 77.111487,17.12394 78.497461,17.12394 78.497461,29.22444 77.128625,29.22444 77.128625,19.42299 "
       style="fill:#f9f9f9" />
    <path
       d="m 87.335808,23.709825 c 2.010182,0 3.326248,-1.07145 3.326248,-2.6622 v -0.03465 c 0,-1.72845 -1.298477,-2.6271 -3.256791,-2.6271 h -3.066913 v 5.32395 z m -4.365841,-6.58575 h 4.539483 c 2.736769,0 4.539031,1.4517 4.539031,3.8376 v 0.0342 c 0,2.61045 -2.183371,3.95865 -4.764088,3.95865 h -2.946041 v 4.2696 h -1.368385 z"
       id="Fill-5"
       style="fill:#f9f9f9"
       inkscape:connector-curvature="0" />
    <path
       d="m 100.67914,23.29497 c 1.81895,0 3.11878,-0.93375 3.11878,-2.4894 v -0.0342 c 0,-1.4868 -1.14378,-2.38545 -3.10165,-2.38545 h -3.742081 v 4.90905 z m -5.093335,-6.17085 h 5.214655 c 1.48971,0 2.6858,0.4491 3.44757,1.2096 0.58948,0.5877 0.93586,1.43505 0.93586,2.3859 v 0.0342 c 0,2.0052 -1.38597,3.1806 -3.29197,3.52665 l 3.7245,4.9437 h -1.67959 l -3.51703,-4.7016 h -3.465611 v 4.7016 h -1.368384 z"
       id="Fill-7"
       style="fill:#f9f9f9"
       inkscape:connector-curvature="0" />
    <path
       d="m 119.56501,23.20839 v -0.0342 c 0,-2.7486 -2.00928,-4.9959 -4.78123,-4.9959 -2.7724,0 -4.7474,2.21265 -4.7474,4.96125 v 0.03465 c 0,2.74815 2.00928,4.99545 4.78213,4.99545 2.77104,0 4.7465,-2.21265 4.7465,-4.96125 m -10.94843,0 v -0.0342 c 0,-3.3363 2.51126,-6.2577 6.20193,-6.2577 3.69021,0 6.1672,2.88675 6.1672,6.22305 v 0.03465 c 0,3.33585 -2.51171,6.25725 -6.20193,6.25725 -3.68977,0 -6.1672,-2.88675 -6.1672,-6.22305"
       id="Fill-9"
       style="fill:#f9f9f9"
       inkscape:connector-curvature="0" />
    <path
       d="m 130.34448,27.996885 c 1.83654,0 2.97942,-0.8127 2.97942,-2.1609 v -0.03465 c 0,-1.31355 -1.1086,-2.07405 -3.22206,-2.07405 h -3.82868 v 4.2696 z m -0.48484,-5.47965 c 1.64531,0 2.78909,-0.7434 2.78909,-2.1609 v -0.03465 c 0,-1.1925 -0.953,-1.97055 -2.68535,-1.97055 h -3.69022 v 4.1661 z m -4.93773,-5.39325 h 5.16279 c 1.38552,0 2.47743,0.3978 3.17065,1.0719 0.50243,0.5184 0.7798,1.15785 0.7798,1.93545 v 0.0351 c 0,1.57275 -0.97058,2.385 -1.92358,2.7999 1.43784,0.43245 2.59875,1.26225 2.59875,2.9214 v 0.03465 c 0,2.0745 -1.74949,3.3021 -4.40011,3.3021 h -5.3883 z"
       id="Fill-11"
       style="fill:#f9f9f9"
       inkscape:connector-curvature="0" />
    <path
       d="m 146.33749,24.799005 -2.75481,-6.17085 -2.77195,6.17085 z m -3.37857,-7.7616 h 1.28269 l 5.52586,12.1869 h -1.47212 l -1.42115,-3.19815 h -6.60063 l -1.43829,3.19815 h -1.40357 z"
       id="Fill-13"
       style="fill:#f9f9f9"
       inkscape:connector-curvature="0" />
    <polygon
       id="Fill-15"
       points="159.02134,25.90524 158.95279,25.90524 154.53463,19.44009 154.53463,29.22444 153.20052,29.22444 153.20052,17.12394 154.58649,17.12394 159.0042,23.72724 163.42236,17.12394 164.80833,17.12394 164.80833,29.22444 163.4395,29.22444 163.4395,19.42299 "
       style="fill:#f9f9f9" />
    <path
       d="m 179.69292,23.20839 v -0.0342 c 0,-2.7486 -2.00928,-4.9959 -4.78123,-4.9959 -2.77195,0 -4.7474,2.21265 -4.7474,4.96125 v 0.03465 c 0,2.74815 2.00928,4.99545 4.78213,4.99545 2.7715,0 4.7465,-2.21265 4.7465,-4.96125 m -10.94843,0 v -0.0342 c 0,-3.3363 2.51126,-6.2577 6.20193,-6.2577 3.69022,0 6.1672,2.88675 6.1672,6.22305 v 0.03465 c 0,3.33585 -2.51171,6.25725 -6.20193,6.25725 -3.68976,0 -6.1672,-2.88675 -6.1672,-6.22305"
       id="Fill-17"
       style="fill:#f9f9f9"
       inkscape:connector-curvature="0" />
    <path
       d="m 184.16565,27.461205 0.84927,-1.00305 c 1.26465,1.1412 2.47743,1.71135 4.15792,1.71135 1.62817,0 2.70249,-0.864 2.70249,-2.05695 v -0.03465 c 0,-1.1232 -0.60662,-1.7631 -3.15306,-2.29905 -2.78908,-0.6048 -4.07178,-1.5039 -4.07178,-3.49155 v -0.0351 c 0,-1.90125 1.68094,-3.3012 3.98564,-3.3012 1.76663,0 3.03173,0.5013 4.2612,1.48635 l -0.79649,1.0548 c -1.12619,-0.9162 -2.25193,-1.314 -3.49989,-1.314 -1.5763,0 -2.58117,0.86445 -2.58117,1.95345 v 0.0351 c 0,1.1403 0.62376,1.7802 3.29152,2.35035 2.70294,0.5877 3.95,1.5732 3.95,3.4227 v 0.0342 c 0,2.07495 -1.73235,3.4227 -4.14033,3.4227 -1.92268,0 -3.49944,-0.639 -4.95532,-1.93545"
       id="Fill-19"
       style="fill:#f9f9f9"
       inkscape:connector-curvature="0" />
    <mask
       id="mask-2"
       fill="white">
      <use
         xlink:href="#path-1"
         id="use25"
         x="0"
         y="0"
         width="100%"
         height="100%" />
    </mask>
    <g
       id="Clip-22"
       style="fill:#f9f9f9" />
    <polygon
       id="Fill-21"
       mask="url(#mask-2)"
       points="196.71136,29.224305 198.30525,29.224305 198.30525,27.409005 196.71136,27.409005 "
       style="fill:#f9f9f9" />
    <path
       d="m 207.87086,29.43126 c -0.89031,0 -1.71025,-0.1611 -2.46075,-0.48375 -0.75094,-0.32265 -1.40266,-0.7632 -1.95515,-1.323 -0.5516,-0.55845 -0.98502,-1.21905 -1.29938,-1.97955 -0.31391,-0.7605 -0.47086,-1.5732 -0.47086,-2.4372 v -0.03465 c 0,-0.8649 0.15424,-1.674 0.46229,-2.42955 0.30849,-0.75465 0.74147,-1.4175 1.29938,-1.9881 0.55836,-0.57015 1.2191,-1.02015 1.98041,-1.3482 0.76267,-0.32895 1.60652,-0.4932 2.52975,-0.4932 0.55521,0 1.06034,0.04635 1.51722,0.1386 0.45598,0.09225 0.87453,0.22185 1.25609,0.3888 0.3811,0.1674 0.7329,0.36585 1.05718,0.59625 0.32248,0.23085 0.62872,0.48465 0.91782,0.76095 l -1.36839,1.57365 c -0.48574,-0.45 -0.99945,-0.8127 -1.54202,-1.0899 -0.54348,-0.2763 -1.16182,-0.41445 -1.85503,-0.41445 -0.57731,0 -1.11176,0.11205 -1.60247,0.33705 -0.49115,0.225 -0.91601,0.53055 -1.27367,0.91665 -0.35765,0.3861 -0.63548,0.83835 -0.83167,1.35675 -0.19665,0.51885 -0.29452,1.0719 -0.29452,1.6596 v 0.0351 c 0,0.58725 0.0979,1.1439 0.29452,1.66815 0.19619,0.5247 0.47402,0.9828 0.83167,1.3743 0.35766,0.3924 0.78252,0.7002 1.27367,0.9252 0.49071,0.22455 1.02516,0.33705 1.60247,0.33705 0.73921,0 1.37469,-0.14085 1.90644,-0.42345 0.53175,-0.28215 1.05719,-0.66555 1.57721,-1.14975 l 1.36883,1.38285 c -0.31255,0.33435 -0.63864,0.63135 -0.9796,0.89055 -0.34052,0.2592 -0.7072,0.4842 -1.09958,0.67455 -0.39284,0.1899 -0.82311,0.33435 -1.29126,0.432 -0.46816,0.0981 -0.98502,0.1467 -1.5506,0.1467"
       id="Fill-23"
       mask="url(#mask-2)"
       style="fill:#ffffff;fill-opacity:1"
       inkscape:connector-curvature="0" />
    <path
       d="m 221.87177,27.4779 c 0.5976,0 1.14739,-0.1125 1.64756,-0.33705 0.50063,-0.225 0.92865,-0.5301 1.28495,-0.91665 0.3563,-0.3861 0.63548,-0.83835 0.83664,-1.35675 0.2025,-0.51885 0.30263,-1.07235 0.30263,-1.6596 V 23.1732 c 0,-0.58815 -0.10013,-1.1439 -0.30263,-1.6686 -0.20116,-0.52425 -0.48304,-0.97965 -0.84521,-1.36575 -0.36171,-0.3861 -0.79649,-0.6948 -1.30253,-0.9252 -0.50605,-0.2304 -1.05809,-0.3456 -1.65614,-0.3456 -0.5985,0 -1.14738,0.11205 -1.64756,0.33705 -0.50063,0.225 -0.92955,0.5301 -1.28585,0.9162 -0.35675,0.38655 -0.63548,0.8388 -0.83754,1.35675 -0.20115,0.5193 -0.30083,1.07235 -0.30083,1.66005 v 0.0351 c 0,0.58725 0.0997,1.1439 0.30083,1.66815 0.20206,0.5247 0.48394,0.97965 0.84611,1.36575 0.36217,0.38655 0.79649,0.6948 1.30299,0.92475 0.50559,0.2313 1.05853,0.34605 1.65658,0.34605 m -0.0347,1.95345 c -0.93586,0 -1.79099,-0.1638 -2.56493,-0.49275 -0.77394,-0.32805 -1.43829,-0.7749 -1.99304,-1.3392 -0.5543,-0.5652 -0.98728,-1.22535 -1.29893,-1.98045 -0.3121,-0.75465 -0.46816,-1.55835 -0.46816,-2.4111 V 23.1732 c 0,-0.8532 0.15606,-1.65735 0.46816,-2.412 0.31165,-0.7551 0.75094,-1.41795 1.31697,-1.98855 0.56557,-0.5706 1.23624,-1.02285 2.00973,-1.35675 0.77394,-0.3348 1.62862,-0.50175 2.56493,-0.50175 0.93541,0 1.79054,0.16425 2.56448,0.4932 0.77349,0.32805 1.43829,0.77535 1.99214,1.3392 0.55475,0.56565 0.98818,1.22535 1.29938,1.98 0.31255,0.7551 0.46816,1.5588 0.46816,2.41155 v 0.0351 c 0,0.85275 -0.15561,1.6569 -0.46816,2.41155 -0.3112,0.7551 -0.75049,1.4175 -1.31697,1.9881 -0.56512,0.5706 -1.23578,1.02285 -2.01018,1.35765 -0.77304,0.33435 -1.62772,0.50085 -2.56358,0.50085"
       id="Fill-24"
       mask="url(#mask-2)"
       style="fill:#ffffff;fill-opacity:1"
       inkscape:connector-curvature="0" />
    <polygon
       id="Fill-25"
       mask="url(#mask-2)"
       points="237.79613,26.250435 237.72713,26.250435 233.93182,20.579535 233.93182,29.224485 231.8179,29.224485 231.8179,17.121735 234.08787,17.121735 237.77854,22.844385 241.46966,17.121735 243.73963,17.121735 243.73963,29.224485 241.62616,29.224485 241.62616,20.544885 "
       style="fill:#ffffff;fill-opacity:1" />
    <g
       id="Group"
       mask="url(#mask-2)"
       style="fill:#f9f9f9">
      <g
         transform="translate(52,7)"
         id="g33"
         style="fill:#f9f9f9">
        <path
           d="M 3.8299753,4.3716562 2.7816207,2.0241498 1.7271246,4.3716562 Z M 2.5439445,1.4193498 H 3.032194 L 5.1350447,6.0549243 H 4.5743254 L 4.0338732,4.8385838 H 1.5232267 L 0.97601875,6.0549243 H 0.44170798 Z"
           id="Fill-26"
           style="fill:#f9f9f9"
           inkscape:connector-curvature="0" />
        <polygon
           id="Fill-27"
           points="9.8442264,6.0551081 9.3363241,6.0551081 9.3363241,1.4520102 9.8239595,1.4520102 12.730119,5.1408613 12.730119,1.4520102 13.238021,1.4520102 13.238021,6.0551081 12.822241,6.0551081 9.8442264,2.2810825 "
           style="fill:#f9f9f9" />
        <polygon
           id="Fill-28"
           points="19.054454,1.9322349 17.506182,1.9322349 17.506182,1.4518264 21.130282,1.4518264 21.130282,1.9322349 19.581395,1.9322349 19.581395,6.0549243 19.054454,6.0549243 "
           style="fill:#f9f9f9" />
        <polygon
           id="Fill-29"
           points="25.919488,5.58144 28.767303,5.58144 28.767303,6.0551081 25.399303,6.0551081 25.399303,1.4520102 28.734139,1.4520102 28.734139,1.9250655 25.919488,1.9250655 25.919488,3.4968102 28.437504,3.4968102 28.437504,3.9704783 25.919488,3.9704783 "
           style="fill:#f9f9f9" />
        <path
           d="m 32.804482,5.3841294 0.323043,-0.3811405 c 0.482108,0.4338383 0.94272,0.6507575 1.582051,0.6507575 0.619063,0 1.028087,-0.3284426 1.028087,-0.7825021 v -0.012868 c 0,-0.4270979 -0.23092,-0.6709788 -1.200049,-0.8750298 C 33.47759,3.7535592 32.989341,3.4116357 32.989341,2.6554826 v -0.013481 c 0,-0.7230638 0.63933,-1.2555574 1.516337,-1.2555574 0.671266,0 1.152146,0.1905702 1.620128,0.5655829 L 35.823644,2.3533889 C 35.394968,2.0047251 34.966905,1.8527591 34.491552,1.8527591 c -0.59941,0 -0.981412,0.3290554 -0.981412,0.7432852 v 0.013481 c 0,0.4338383 0.237676,0.6771064 1.252253,0.8940255 1.027473,0.2236596 1.502211,0.5980596 1.502211,1.3021277 v 0.013481 c 0,0.7886298 -0.658983,1.3015149 -1.574681,1.3015149 -0.732067,0 -1.332092,-0.243268 -1.885441,-0.7365446"
           id="Fill-30"
           style="fill:#f9f9f9"
           inkscape:connector-curvature="0" />
        <path
           d="m 47.491272,5.5747608 c 1.165657,0 1.910622,-0.7886297 1.910622,-1.8082723 v -0.012868 c 0,-1.0190298 -0.744965,-1.8211404 -1.910622,-1.8211404 H 46.409753 V 5.5747609 Z M 45.889568,1.4520715 h 1.601704 c 1.449395,0 2.451688,0.9932936 2.451688,2.2886808 v 0.012868 c 0,1.2953873 -1.002293,2.301549 -2.451688,2.301549 h -1.601704 z"
           id="Fill-31"
           style="fill:#f9f9f9"
           inkscape:connector-curvature="0" />
        <polygon
           id="Fill-32"
           points="54.85647,5.58144 57.703671,5.58144 57.703671,6.0551081 54.336284,6.0551081 54.336284,1.4520102 57.671121,1.4520102 57.671121,1.9250655 54.85647,1.9250655 54.85647,3.4968102 57.374486,3.4968102 57.374486,3.9704783 54.85647,3.9704783 "
           style="fill:#f9f9f9" />
        <polygon
           id="Fill-33"
           points="68.534334,1.9322349 66.986061,1.9322349 66.986061,1.4518264 70.610162,1.4518264 70.610162,1.9322349 69.061275,1.9322349 69.061275,6.0549243 68.534334,6.0549243 "
           style="fill:#f9f9f9" />
        <path
           d="m 78.523305,3.7666723 v -0.012868 c 0,-1.0459915 -0.764003,-1.9008 -1.818499,-1.9008 -1.05511,0 -1.806216,0.8419404 -1.806216,1.8879319 v 0.012868 c 0,1.0453787 0.764617,1.9001872 1.819727,1.9001872 1.053268,0 1.804988,-0.8413277 1.804988,-1.8873192 m -4.164554,0 v -0.012868 c 0,-1.2696511 0.955004,-2.3805958 2.359566,-2.3805958 1.403948,0 2.346054,1.0980766 2.346054,2.3677277 v 0.012868 c 0,1.2690382 -0.955618,2.3799829 -2.359565,2.3799829 -1.403334,0 -2.346055,-1.0980766 -2.346055,-2.3671149"
           id="Fill-34"
           style="fill:#f9f9f9"
           inkscape:connector-curvature="0" />
        <polygon
           id="Fill-35"
           points="85.671462,4.7921974 85.645667,4.7921974 83.965352,2.3331677 83.965352,6.0551081 83.458064,6.0551081 83.458064,1.4520102 83.983777,1.4520102 85.66532,3.9643506 87.34625,1.4520102 87.872576,1.4520102 87.872576,6.0551081 87.353005,6.0551081 87.353005,2.32704 "
           style="fill:#f9f9f9" />
        <path
           d="M 95.462799,4.3716562 94.414444,2.0241498 93.359948,4.3716562 Z M 94.176768,1.4193498 h 0.488249 l 2.102851,4.6355745 H 96.207763 L 95.666697,4.8385838 H 93.15605 l -0.546594,1.2163405 h -0.534925 z"
           id="Fill-36"
           style="fill:#f9f9f9"
           inkscape:connector-curvature="0" />
        <path
           d="m 102.90636,3.7995779 c 0.69215,0 1.18777,-0.3554043 1.18777,-0.9467234 v -0.013481 c 0,-0.565583 -0.43543,-0.9068936 -1.18101,-0.9068936 h -1.42299 v 1.8670979 z m -1.93641,-2.3475064 h 1.98309 c 0.56624,0 1.02133,0.1709617 1.31182,0.4601872 0.22355,0.2236596 0.35621,0.5459745 0.35621,0.9075064 v 0.012868 c 0,0.7628936 -0.52694,1.2102128 -1.25287,1.3419574 l 1.41746,1.8805788 h -0.63933 l -1.33885,-1.7892766 h -1.31735 v 1.7892766 h -0.52018 z"
           id="Fill-37"
           style="fill:#f9f9f9"
           inkscape:connector-curvature="0" />
        <polygon
           id="Fill-38"
           points="115.51683,1.9322349 113.96856,1.9322349 113.96856,1.4518264 117.59266,1.4518264 117.59266,1.9322349 116.04377,1.9322349 116.04377,6.0549243 115.51683,6.0549243 "
           style="fill:#f9f9f9" />
        <path
           d="M 121.78848,4.1286945 V 1.4521328 h 0.52079 v 2.6428595 c 0,0.9932937 0.52756,1.552749 1.41071,1.552749 0.84998,0 1.38982,-0.5128851 1.38982,-1.5190468 V 1.4521328 h 0.5208 v 2.6373447 c 0,1.3407319 -0.77076,2.0380595 -1.92475,2.0380595 -1.13925,0 -1.91737,-0.6973276 -1.91737,-1.9988425"
           id="Fill-39"
           style="fill:#f9f9f9"
           inkscape:connector-curvature="0" />
        <path
           d="m 136.99348,5.5824817 c 1.14847,0 1.88115,-0.7769872 1.88115,-1.7806979 v -0.012868 c 0,-1.0037106 -0.73268,-1.7935659 -1.88115,-1.7935659 h -1.0637 v 3.5871319 z m -1.5759,-4.0595745 h 1.5759 c 1.4279,0 2.41423,0.9773617 2.41423,2.2531405 v 0.012868 c 0,1.275166 -0.98633,2.2660086 -2.41423,2.2660086 h -1.5759 z"
           id="Fill-40"
           style="fill:#f9f9f9"
           inkscape:connector-curvature="0" />
        <polygon
           id="Fill-41"
           points="144.50847,5.5892221 147.31207,5.5892221 147.31207,6.0549243 143.99566,6.0549243 143.99566,1.5229072 147.27891,1.5229072 147.27891,1.9886094 144.50847,1.9886094 144.50847,3.5364562 146.98719,3.5364562 146.98719,4.0021583 144.50847,4.0021583 "
           style="fill:#f9f9f9" />
        <path
           d="m 151.64613,3.8016613 v -0.012868 c 0,-1.2819064 0.96053,-2.3438298 2.29753,-2.3438298 0.82481,0 1.31797,0.2916766 1.77183,0.7187745 l -0.35068,0.3756255 c -0.38262,-0.3627574 -0.81129,-0.6213447 -1.4279,-0.6213447 -1.00598,0 -1.75831,0.8155915 -1.75831,1.8579064 v 0.012868 c 0,1.0490553 0.75909,1.8713872 1.75831,1.8713872 0.62336,0 1.03177,-0.2395915 1.46659,-0.654434 l 0.33778,0.3308936 c -0.47351,0.479183 -0.99246,0.795983 -1.81665,0.795983 -1.31183,0 -2.2785,-1.0294468 -2.2785,-2.3309617"
           id="Fill-42"
           style="fill:#f9f9f9"
           inkscape:connector-curvature="0" />
        <polygon
           id="Fill-43"
           points="160.18693,6.0546792 160.81103,6.0546792 160.81103,1.5226621 160.18693,1.5226621 "
           style="fill:#f9f9f9" />
        <path
           d="m 165.23543,5.3946077 0.31813,-0.3756256 c 0.47351,0.4270979 0.92737,0.6409532 1.55626,0.6409532 0.61108,0 1.01273,-0.3235404 1.01273,-0.7708596 v -0.012868 c 0,-0.4203575 -0.22662,-0.659949 -1.18101,-0.8603234 -1.04528,-0.2273362 -1.52493,-0.5637447 -1.52493,-1.3082554 v -0.012868 c 0,-0.7120341 0.6295,-1.2365618 1.493,-1.2365618 0.66144,0 1.13556,0.1875064 1.59617,0.5570043 l -0.29847,0.3946213 c -0.42254,-0.343149 -0.84385,-0.4920511 -1.3106,-0.4920511 -0.59143,0 -0.96667,0.3235404 -0.96667,0.7316426 v 0.013481 c 0,0.4270979 0.23337,0.6660766 1.23198,0.8799319 1.01274,0.219983 1.47949,0.5894809 1.47949,1.2819064 v 0.012868 c 0,0.7769872 -0.64916,1.2819064 -1.55073,1.2819064 -0.71978,0 -1.3106,-0.2395915 -1.85535,-0.7249021"
           id="Fill-44"
           style="fill:#f9f9f9"
           inkscape:connector-curvature="0" />
        <polygon
           id="Fill-45"
           points="173.23701,6.0546792 173.86186,6.0546792 173.86186,1.5226621 173.23701,1.5226621 "
           style="fill:#f9f9f9" />
        <path
           d="m 181.14094,0.22139234 0.51282,0.23285106 -0.74681,0.6023489 h -0.41578 z m 1.34315,3.58039146 v -0.012868 c 0,-1.0294468 -0.75295,-1.8707744 -1.79086,-1.8707744 -1.03853,0 -1.77858,0.8284596 -1.77858,1.8579064 v 0.012868 c 0,1.0288341 0.75295,1.8707745 1.79147,1.8707745 1.0373,0 1.77797,-0.8284596 1.77797,-1.8579064 z m -4.1013,0 v -0.012868 c 0,-1.2494297 0.94027,-2.3438297 2.32333,-2.3438297 1.38246,0 2.30982,1.0815319 2.30982,2.3309617 v 0.012868 c 0,1.2494298 -0.94087,2.3438298 -2.32271,2.3438298 -1.38245,0 -2.31044,-1.0815319 -2.31044,-2.3309617 z"
           id="Fill-46"
           style="fill:#f9f9f9"
           inkscape:connector-curvature="0" />
        <polygon
           id="Fill-47"
           points="188.10381,6.0549243 187.60451,6.0549243 187.60451,1.5229072 188.08416,1.5229072 190.9461,5.1553838 190.9461,1.5229072 191.44602,1.5229072 191.44602,6.0549243 191.03699,6.0549243 188.10381,2.3384987 "
           style="fill:#f9f9f9" />
      </g>
    </g>
    <g
       id="g57"
       mask="url(#mask-2)"
       style="fill:#f9f9f9">
      <g
         transform="translate(52,7)"
         id="g59"
         style="fill:#f9f9f9">
        <path
           d="M 3.8299753,4.3716562 2.7816207,2.0241498 1.7271246,4.3716562 Z M 2.5439445,1.4193498 H 3.032194 L 5.1350447,6.0549243 H 4.5743254 L 4.0338732,4.8385838 H 1.5232267 L 0.97601875,6.0549243 H 0.44170798 Z"
           id="path61"
           style="fill:#f9f9f9"
           inkscape:connector-curvature="0" />
        <polygon
           id="polygon63"
           points="9.8442264,6.0551081 9.3363241,6.0551081 9.3363241,1.4520102 9.8239595,1.4520102 12.730119,5.1408613 12.730119,1.4520102 13.238021,1.4520102 13.238021,6.0551081 12.822241,6.0551081 9.8442264,2.2810825 "
           style="fill:#f9f9f9" />
        <polygon
           id="polygon65"
           points="19.054454,1.9322349 17.506182,1.9322349 17.506182,1.4518264 21.130282,1.4518264 21.130282,1.9322349 19.581395,1.9322349 19.581395,6.0549243 19.054454,6.0549243 "
           style="fill:#f9f9f9" />
        <polygon
           id="polygon67"
           points="25.919488,5.58144 28.767303,5.58144 28.767303,6.0551081 25.399303,6.0551081 25.399303,1.4520102 28.734139,1.4520102 28.734139,1.9250655 25.919488,1.9250655 25.919488,3.4968102 28.437504,3.4968102 28.437504,3.9704783 25.919488,3.9704783 "
           style="fill:#f9f9f9" />
        <path
           d="m 32.804482,5.3841294 0.323043,-0.3811405 c 0.482108,0.4338383 0.94272,0.6507575 1.582051,0.6507575 0.619063,0 1.028087,-0.3284426 1.028087,-0.7825021 v -0.012868 c 0,-0.4270979 -0.23092,-0.6709788 -1.200049,-0.8750298 C 33.47759,3.7535592 32.989341,3.4116357 32.989341,2.6554826 v -0.013481 c 0,-0.7230638 0.63933,-1.2555574 1.516337,-1.2555574 0.671266,0 1.152146,0.1905702 1.620128,0.5655829 L 35.823644,2.3533889 C 35.394968,2.0047251 34.966905,1.8527591 34.491552,1.8527591 c -0.59941,0 -0.981412,0.3290554 -0.981412,0.7432852 v 0.013481 c 0,0.4338383 0.237676,0.6771064 1.252253,0.8940255 1.027473,0.2236596 1.502211,0.5980596 1.502211,1.3021277 v 0.013481 c 0,0.7886298 -0.658983,1.3015149 -1.574681,1.3015149 -0.732067,0 -1.332092,-0.243268 -1.885441,-0.7365446"
           id="path69"
           style="fill:#f9f9f9"
           inkscape:connector-curvature="0" />
        <path
           d="m 47.491272,5.5747608 c 1.165657,0 1.910622,-0.7886297 1.910622,-1.8082723 v -0.012868 c 0,-1.0190298 -0.744965,-1.8211404 -1.910622,-1.8211404 H 46.409753 V 5.5747609 Z M 45.889568,1.4520715 h 1.601704 c 1.449395,0 2.451688,0.9932936 2.451688,2.2886808 v 0.012868 c 0,1.2953873 -1.002293,2.301549 -2.451688,2.301549 h -1.601704 z"
           id="path71"
           style="fill:#f9f9f9"
           inkscape:connector-curvature="0" />
        <polygon
           id="polygon73"
           points="54.85647,5.58144 57.703671,5.58144 57.703671,6.0551081 54.336284,6.0551081 54.336284,1.4520102 57.671121,1.4520102 57.671121,1.9250655 54.85647,1.9250655 54.85647,3.4968102 57.374486,3.4968102 57.374486,3.9704783 54.85647,3.9704783 "
           style="fill:#f9f9f9" />
        <polygon
           id="polygon75"
           points="68.534334,1.9322349 66.986061,1.9322349 66.986061,1.4518264 70.610162,1.4518264 70.610162,1.9322349 69.061275,1.9322349 69.061275,6.0549243 68.534334,6.0549243 "
           style="fill:#f9f9f9" />
        <path
           d="m 78.523305,3.7666723 v -0.012868 c 0,-1.0459915 -0.764003,-1.9008 -1.818499,-1.9008 -1.05511,0 -1.806216,0.8419404 -1.806216,1.8879319 v 0.012868 c 0,1.0453787 0.764617,1.9001872 1.819727,1.9001872 1.053268,0 1.804988,-0.8413277 1.804988,-1.8873192 m -4.164554,0 v -0.012868 c 0,-1.2696511 0.955004,-2.3805958 2.359566,-2.3805958 1.403948,0 2.346054,1.0980766 2.346054,2.3677277 v 0.012868 c 0,1.2690382 -0.955618,2.3799829 -2.359565,2.3799829 -1.403334,0 -2.346055,-1.0980766 -2.346055,-2.3671149"
           id="path77"
           style="fill:#f9f9f9"
           inkscape:connector-curvature="0" />
        <polygon
           id="polygon79"
           points="85.671462,4.7921974 85.645667,4.7921974 83.965352,2.3331677 83.965352,6.0551081 83.458064,6.0551081 83.458064,1.4520102 83.983777,1.4520102 85.66532,3.9643506 87.34625,1.4520102 87.872576,1.4520102 87.872576,6.0551081 87.353005,6.0551081 87.353005,2.32704 "
           style="fill:#f9f9f9" />
        <path
           d="M 95.462799,4.3716562 94.414444,2.0241498 93.359948,4.3716562 Z M 94.176768,1.4193498 h 0.488249 l 2.102851,4.6355745 H 96.207763 L 95.666697,4.8385838 H 93.15605 l -0.546594,1.2163405 h -0.534925 z"
           id="path81"
           style="fill:#f9f9f9"
           inkscape:connector-curvature="0" />
        <path
           d="m 102.90636,3.7995779 c 0.69215,0 1.18777,-0.3554043 1.18777,-0.9467234 v -0.013481 c 0,-0.565583 -0.43543,-0.9068936 -1.18101,-0.9068936 h -1.42299 v 1.8670979 z m -1.93641,-2.3475064 h 1.98309 c 0.56624,0 1.02133,0.1709617 1.31182,0.4601872 0.22355,0.2236596 0.35621,0.5459745 0.35621,0.9075064 v 0.012868 c 0,0.7628936 -0.52694,1.2102128 -1.25287,1.3419574 l 1.41746,1.8805788 h -0.63933 l -1.33885,-1.7892766 h -1.31735 v 1.7892766 h -0.52018 z"
           id="path83"
           style="fill:#f9f9f9"
           inkscape:connector-curvature="0" />
        <polygon
           id="polygon85"
           points="115.51683,1.9322349 113.96856,1.9322349 113.96856,1.4518264 117.59266,1.4518264 117.59266,1.9322349 116.04377,1.9322349 116.04377,6.0549243 115.51683,6.0549243 "
           style="fill:#f9f9f9" />
        <path
           d="M 121.78848,4.1286945 V 1.4521328 h 0.52079 v 2.6428595 c 0,0.9932937 0.52756,1.552749 1.41071,1.552749 0.84998,0 1.38982,-0.5128851 1.38982,-1.5190468 V 1.4521328 h 0.5208 v 2.6373447 c 0,1.3407319 -0.77076,2.0380595 -1.92475,2.0380595 -1.13925,0 -1.91737,-0.6973276 -1.91737,-1.9988425"
           id="path87"
           style="fill:#f9f9f9"
           inkscape:connector-curvature="0" />
        <path
           d="m 136.99348,5.5824817 c 1.14847,0 1.88115,-0.7769872 1.88115,-1.7806979 v -0.012868 c 0,-1.0037106 -0.73268,-1.7935659 -1.88115,-1.7935659 h -1.0637 v 3.5871319 z m -1.5759,-4.0595745 h 1.5759 c 1.4279,0 2.41423,0.9773617 2.41423,2.2531405 v 0.012868 c 0,1.275166 -0.98633,2.2660086 -2.41423,2.2660086 h -1.5759 z"
           id="path89"
           style="fill:#f9f9f9"
           inkscape:connector-curvature="0" />
        <polygon
           id="polygon91"
           points="144.50847,5.5892221 147.31207,5.5892221 147.31207,6.0549243 143.99566,6.0549243 143.99566,1.5229072 147.27891,1.5229072 147.27891,1.9886094 144.50847,1.9886094 144.50847,3.5364562 146.98719,3.5364562 146.98719,4.0021583 144.50847,4.0021583 "
           style="fill:#f9f9f9" />
        <path
           d="m 151.64613,3.8016613 v -0.012868 c 0,-1.2819064 0.96053,-2.3438298 2.29753,-2.3438298 0.82481,0 1.31797,0.2916766 1.77183,0.7187745 l -0.35068,0.3756255 c -0.38262,-0.3627574 -0.81129,-0.6213447 -1.4279,-0.6213447 -1.00598,0 -1.75831,0.8155915 -1.75831,1.8579064 v 0.012868 c 0,1.0490553 0.75909,1.8713872 1.75831,1.8713872 0.62336,0 1.03177,-0.2395915 1.46659,-0.654434 l 0.33778,0.3308936 c -0.47351,0.479183 -0.99246,0.795983 -1.81665,0.795983 -1.31183,0 -2.2785,-1.0294468 -2.2785,-2.3309617"
           id="path93"
           style="fill:#f9f9f9"
           inkscape:connector-curvature="0" />
        <polygon
           id="polygon95"
           points="160.18693,6.0546792 160.81103,6.0546792 160.81103,1.5226621 160.18693,1.5226621 "
           style="fill:#f9f9f9" />
        <path
           d="m 165.23543,5.3946077 0.31813,-0.3756256 c 0.47351,0.4270979 0.92737,0.6409532 1.55626,0.6409532 0.61108,0 1.01273,-0.3235404 1.01273,-0.7708596 v -0.012868 c 0,-0.4203575 -0.22662,-0.659949 -1.18101,-0.8603234 -1.04528,-0.2273362 -1.52493,-0.5637447 -1.52493,-1.3082554 v -0.012868 c 0,-0.7120341 0.6295,-1.2365618 1.493,-1.2365618 0.66144,0 1.13556,0.1875064 1.59617,0.5570043 l -0.29847,0.3946213 c -0.42254,-0.343149 -0.84385,-0.4920511 -1.3106,-0.4920511 -0.59143,0 -0.96667,0.3235404 -0.96667,0.7316426 v 0.013481 c 0,0.4270979 0.23337,0.6660766 1.23198,0.8799319 1.01274,0.219983 1.47949,0.5894809 1.47949,1.2819064 v 0.012868 c 0,0.7769872 -0.64916,1.2819064 -1.55073,1.2819064 -0.71978,0 -1.3106,-0.2395915 -1.85535,-0.7249021"
           id="path97"
           style="fill:#f9f9f9"
           inkscape:connector-curvature="0" />
        <polygon
           id="polygon99"
           points="173.23701,6.0546792 173.86186,6.0546792 173.86186,1.5226621 173.23701,1.5226621 "
           style="fill:#f9f9f9" />
        <path
           d="m 181.14094,0.22139234 0.51282,0.23285106 -0.74681,0.6023489 h -0.41578 z m 1.34315,3.58039146 v -0.012868 c 0,-1.0294468 -0.75295,-1.8707744 -1.79086,-1.8707744 -1.03853,0 -1.77858,0.8284596 -1.77858,1.8579064 v 0.012868 c 0,1.0288341 0.75295,1.8707745 1.79147,1.8707745 1.0373,0 1.77797,-0.8284596 1.77797,-1.8579064 z m -4.1013,0 v -0.012868 c 0,-1.2494297 0.94027,-2.3438297 2.32333,-2.3438297 1.38246,0 2.30982,1.0815319 2.30982,2.3309617 v 0.012868 c 0,1.2494298 -0.94087,2.3438298 -2.32271,2.3438298 -1.38245,0 -2.31044,-1.0815319 -2.31044,-2.3309617 z"
           id="path101"
           style="fill:#f9f9f9"
           inkscape:connector-curvature="0" />
        <polygon
           id="polygon103"
           points="188.10381,6.0549243 187.60451,6.0549243 187.60451,1.5229072 188.08416,1.5229072 190.9461,5.1553838 190.9461,1.5229072 191.44602,1.5229072 191.44602,6.0549243 191.03699,6.0549243 188.10381,2.3384987 "
           style="fill:#f9f9f9" />
      </g>
    </g>
    <polygon
       id="Fill-48"
       mask="url(#mask-2)"
       points="20.912153,17.11872 16.338393,21.48012 24.299739,29.37222 38.557728,15.27462 33.879332,10.87272 24.281247,20.28537 "
       style="fill:#ffffff;fill-opacity:1" />
    <path
       d="m 26.937916,34.401915 c -8.183697,0 -14.841154,-6.6429 -14.841154,-14.8077 0,-8.16525 6.657457,-14.8077 14.841154,-14.8077 5.19526,0 9.772628,2.6793 12.424606,6.72345 h 5.463616 c -3.091268,-6.7824 -9.946721,-11.5101 -17.888222,-11.5101 -10.828459,0 -19.6381667,8.78985 -19.6381667,19.59435 0,3.9753 1.1960962,7.6761 3.2432607,10.7685 h -0.0032 L 2.101664e-6,40.951215 4.1691999,44.561115 l 10.1988391,-9.9243 -0.0086,-0.0095 c 3.409686,2.84445 7.796273,4.5612 12.578403,4.5612 7.52882,0 14.080739,-4.25025 17.374965,-10.47105 h -5.698596 c -2.719179,3.4569 -6.940695,5.6844 -11.676369,5.6844"
       id="Fill-50"
       mask="url(#mask-2)"
       style="fill:#f9f9f9"
       inkscape:connector-curvature="0" />
    <path
       inkscape:connector-curvature="0"
       style="fill:#ffffff;fill-opacity:1"
       mask="url(#mask-2)"
       id="path4757"
       d="m 26.937916,34.401915 c -8.183697,0 -14.841154,-6.6429 -14.841154,-14.8077 0,-8.16525 6.657457,-14.8077 14.841154,-14.8077 5.19526,0 9.772628,2.6793 12.424606,6.72345 h 5.463616 c -3.091268,-6.7824 -9.946721,-11.5101 -17.888222,-11.5101 -10.828459,0 -19.6381667,8.78985 -19.6381667,19.59435 0,3.9753 1.1960962,7.6761 3.2432607,10.7685 h -0.0032 L 2.101664e-6,40.951215 4.1691999,44.561115 l 10.1988391,-9.9243 -0.0086,-0.0095 c 3.409686,2.84445 7.796273,4.5612 12.578403,4.5612 7.52882,0 14.080739,-4.25025 17.374965,-10.47105 h -5.698596 c -2.719179,3.4569 -6.940695,5.6844 -11.676369,5.6844" />
  </g>
</svg>
