<svg xmlns="http://www.w3.org/2000/svg" width="56.983" height="56.686"><path d="M2.614 54.432C1.19 53.192.012 52.15 0 52.114c-.037-.111 2.205-2.392 7.813-7.95 2.963-2.936 5.407-5.385 5.43-5.442.03-.07-.107-.347-.439-.895-3.74-6.167-4.619-13.7-2.396-20.54A25.064 25.064 0 0 1 21.005 3.762c1.556-.971 3.775-2.001 5.5-2.553 6.566-2.1 13.761-1.385 19.749 1.963A25.245 25.245 0 0 1 56.479 13.9l.366.73h-3.476l-3.476-.002-.431-.61a18.232 18.232 0 0 0-2.202-2.553 18.605 18.605 0 0 0-8.345-4.742c-7.397-1.95-15.245.79-19.859 6.933a18.778 18.778 0 0 0-2.386 18.36 18.805 18.805 0 0 0 4.362 6.428c2.902 2.817 6.451 4.555 10.545 5.164 1.11.165 4.116.152 5.221-.023 2.337-.37 4.54-1.108 6.41-2.148a22.11 22.11 0 0 0 2.745-1.849c.774-.622 1.985-1.808 2.594-2.54l.434-.521h7.211l-.07.134a29.97 29.97 0 0 1-1.207 2.014c-3.912 5.864-10.048 9.808-16.924 10.88-1.38.214-1.9.247-3.938.244-1.788-.002-2.188-.02-3.043-.135-3.535-.478-6.719-1.582-9.66-3.347-.427-.257-.784-.443-.794-.413-.023.07-.973-.581-1.879-1.29-.4-.313-.75-.57-.775-.57-.026 0-2.893 2.844-6.371 6.32l-6.325 6.321z"/></svg>